<?xml version="1.0" encoding="UTF-8"?>
<svg id="Layer_1" data-name="Layer 1" xmlns="http://www.w3.org/2000/svg" viewBox="0 0 251.76 241.41">
  <defs>
    <style>
      .cls-1 {
        fill: #282e5b;
      }

      .cls-2 {
        fill: #45b3cb;
      }
    </style>
  </defs>
  <path class="cls-2" d="m238.77,108.58c3.5-1.51,6.94-3.03,10.41-4.44.78-.32,1.71-.24,2.58-.34-.22.84-.24,1.8-.67,2.5-7.15,11.65-14.33,23.27-21.57,34.86-.6.95-1.81,2.33-2.53,2.21-1.03-.17-2.21-1.36-2.72-2.41-5.83-11.94-13.63-22.32-23.75-30.96-.61-.52-.79-1.52-1.18-2.3.88-.11,1.81-.44,2.65-.3,3.08.53,6.13,1.27,9.21,1.82,3.62.65,4.14.16,3.62-3.39-1.52-10.41-4.44-20.42-9.32-29.75-14.59-27.89-37.25-45.6-68.16-51.48-29.61-5.64-56.72,1.21-79.85,20.79-25.56,21.62-36.78,49.67-34.16,82.97,3.39,43.01,37.61,79.42,80.35,86.02,3.46.53,6.97.72,10.45,1.17.75.1,1.45.65,2.17.99-.46.63-.8,1.4-1.39,1.88-1.83,1.49-3.86,2.75-5.62,4.32-1.91,1.7-2.13,3.91-.48,5.84,1.96,2.29,4.26,4.29,6.34,6.48.72.76,1.23,1.73,1.83,2.6-1.04.27-2.09.81-3.11.77-16.91-.79-33.09-4.69-48.09-12.58C28.55,206.23,6.42,175.49,1.06,133.76-3.49,98.27,6.67,66.6,30.49,39.76,50.32,17.41,75.39,4.23,105.01.88c37.09-4.2,69.67,6.61,96.84,32.4,20.75,19.7,32.43,44.11,35.98,72.46.07.56.14,1.13.25,1.69.03.17.18.32.69,1.15Z"/>
  <path class="cls-1" d="m229.51,168.8c0,7.46-2.18,12.83-6.53,17.14-14.86,14.72-29.72,29.45-44.79,43.96-8.92,8.58-22.41,8.27-31.52-.12-6.95-6.4-12.33-13.68-10.12-23.63,1.01-4.53,3.18-9.47,6.35-12.74,14.47-14.9,29.4-29.36,44.32-43.81,8.96-8.68,22.79-8.42,31.87.16,5.88,5.56,10.78,11.58,10.41,19.05Zm-62.99,12.65c-4.79,5.18-9.58,11.14-15.16,16.24-11.94,10.91-3.97,23.11,6.4,28.13,4.01,1.95,8.59,1.66,11.84-1.15,7.31-6.31,14.1-13.21,21.35-20.1-8.12-7.69-15.69-14.85-24.43-23.13Zm9.98-5.62c6.63,6.44,13.95,13.56,22.14,21.52,6.05-6.37,12.49-12.69,18.36-19.49,3.67-4.25,4.02-9.55.94-14.4-1.73-2.73-4.1-5.16-6.56-7.28-5.12-4.41-11.95-4.59-16.79.12-6.24,6.07-11.87,12.76-18.09,19.54Z"/>
  <rect class="cls-1" x="186.12" y="191.12" width="49.92" height="46.84" rx="21.5" ry="21.5"/>
  <path class="cls-2" d="m236.66,232.62c-5.15,5.4-10.43,7.78-16.55,7.89-20.92.4-41.83.8-62.75.9-12.38.06-21.92-9.48-22.73-21.84-.61-9.43.52-18.41,8.99-24.08,3.86-2.58,8.84-4.66,13.39-4.83,20.76-.8,41.54-.96,62.31-1.11,12.47-.09,22.31,9.63,22.95,22.11.42,8.08-.19,15.82-5.62,20.97Zm-54.31-34.32c-7.04.44-14.62,1.45-22.18,1.29-16.17-.35-18.82,13.98-14.79,24.77,1.56,4.18,5.07,7.13,9.36,7.34,9.64.48,19.32.18,29.32.19-.57-11.17-1.1-21.58-1.72-33.6Zm11.1,2.82c.35,9.23.74,19.44,1.17,30.85,8.78-.43,17.79-.56,26.74-1.43,5.59-.54,9.5-4.14,10.62-9.77.63-3.16.6-6.56.28-9.8-.66-6.72-5.47-11.57-12.23-11.5-8.7.09-17.4,1.04-26.58,1.65Z"/>
  <path class="cls-2" d="m181.34,57.8c-2.45-2.6-5.62-2.67-8.49.13-6.24,6.09-12.36,12.29-18.53,18.46-8.84,8.84-17.71,17.67-26.51,26.55-1.1,1.11-2.18,1.79-3.54,1.89,4.58,1.41,8.21,4.98,9.73,9.52.13-.96.54-1.98,1.11-2.6,4.09-4.36,8.37-8.54,12.6-12.77,10.94-10.94,21.89-21.87,32.81-32.83,2.7-2.71,2.99-6.05.82-8.36Z"/>
  <path class="cls-1" d="m134,114.35c-1.52-4.54-5.15-8.11-9.73-9.52-1.39-.43-2.87-.66-4.4-.66-.98,0-1.94.1-2.87.28-1.96.28-3.87.96-5.72,2.03-1.32.76-2.96,1.31-4.47,1.33-7.69.13-15.38.06-23.07.06-7.59,0-15.2-.23-22.78.12-2.78.13-5.86,1.06-8.17,2.58-3.92,2.58-5.2,7.9-3.75,12.23,1.62,4.83,5.71,7.84,11.04,7.85,15.38.05,30.76-.01,46.14.07,1.53,0,3.24.35,4.56,1.1,5.49,3.09,10.94,3.53,16.19.36,4.65-2.52,7.8-7.45,7.8-13.11,0-1.65-.28-3.24-.78-4.72Z"/>
</svg>