<?xml version="1.0" encoding="utf-8"?>
<!-- Generator: Adobe Illustrator 27.6.1, SVG Export Plug-In . SVG Version: 6.00 Build 0)  -->
<svg version="1.1" id="Capa_1" xmlns="http://www.w3.org/2000/svg" xmlns:xlink="http://www.w3.org/1999/xlink" x="0px" y="0px"
	 viewBox="0 0 167.1 167.1" style="enable-background:new 0 0 167.1 167.1;" xml:space="preserve">
<style type="text/css">
	.st0{fill:#45B3CB;}
</style>
<path class="st0" d="M152.4,14.8C142.9,5.2,130.2,0,116.8,0S90.7,5.2,81.2,14.8L14.8,81.1C5.3,90.7,0,103.3,0,116.8
	s5.2,26.1,14.8,35.6c9.5,9.5,22.2,14.8,35.6,14.8s26.1-5.2,35.6-14.8L152.4,86C172,66.4,172,34.4,152.4,14.8z M75.4,141.8
	c-6.7,6.7-15.6,10.4-25,10.4c-9.4,0-18.3-3.7-25-10.4c-6.7-6.7-10.4-15.6-10.4-25s3.7-18.3,10.4-25l27.9-27.9l50,50L75.4,141.8z
	 M141.8,75.4l-27.9,27.9l-50-50l27.9-27.9c6.7-6.7,15.6-10.4,25-10.4c9.4,0,18.3,3.7,25,10.4C155.6,39.2,155.6,61.6,141.8,75.4z"/>
</svg>
