<?xml version="1.0" encoding="utf-8"?>
<!-- Generator: Adobe Illustrator 27.6.1, SVG Export Plug-In . SVG Version: 6.00 Build 0)  -->
<svg version="1.1" id="Layer_1" xmlns="http://www.w3.org/2000/svg" xmlns:xlink="http://www.w3.org/1999/xlink" x="0px" y="0px"
	 viewBox="0 0 512 512" style="enable-background:new 0 0 512 512;" xml:space="preserve">
<style type="text/css">
	.st0{fill:#45B3CB;}
</style>
<g>
	<path class="st0" d="M495,93.5L418.8,17c-8-8-20.9-8-28.9,0s-8,20.9,0,28.9l23.7,23.8l-48.7,48.7l-44-44.1c-8-8-20.9-8-28.9,0
		s-8,20.9,0,28.9l11,11L103.6,313.5c-21.2,21.2-25.2,53-12.2,78.4L17,466.2c-8,8-8,20.9,0,28.9c4,4,17.9,11,28.9,0l74.3-74.3
		c9.4,4.9,47,19.2,78.3-12.1l199.4-199.3l11,11c11.8,11.8,24.9,4,28.9,0c8-8,8-20.9,0-28.9l-44-44.2l48.7-48.7l23.7,23.7
		c11.4,11.4,24.9,4,28.9,0C503,114.4,503,101.5,495,93.5L495,93.5z M169.6,379.8c-9.9,9.9-27.2,10-37.2-0.1
		c-10.3-10.3-10.2-27,0-37.3l68.3-68.3l37.2,37.3L169.6,379.8L169.6,379.8z M266.8,282.6l-37.2-37.3l102.2-102.2l37.2,37.3
		L266.8,282.6z"/>
</g>
</svg>
